<svg width="33" height="33" viewBox="0 0 33 33" fill="none" xmlns="http://www.w3.org/2000/svg">
<path d="M8.25 13.75C6.7375 13.75 5.5 14.9875 5.5 16.5C5.5 18.0125 6.7375 19.25 8.25 19.25C9.7625 19.25 11 18.0125 11 16.5C11 14.9875 9.7625 13.75 8.25 13.75ZM24.75 13.75C23.2375 13.75 22 14.9875 22 16.5C22 18.0125 23.2375 19.25 24.75 19.25C26.2625 19.25 27.5 18.0125 27.5 16.5C27.5 14.9875 26.2625 13.75 24.75 13.75ZM16.5 13.75C14.9875 13.75 13.75 14.9875 13.75 16.5C13.75 18.0125 14.9875 19.25 16.5 19.25C18.0125 19.25 19.25 18.0125 19.25 16.5C19.25 14.9875 18.0125 13.75 16.5 13.75Z" fill="#6B5BCD"/>
</svg>
