<svg width="33" height="33" viewBox="0 0 33 33" fill="none" xmlns="http://www.w3.org/2000/svg">
<path d="M24.75 17.875V27.5H5.5V8.25H12.4025C12.4713 7.27375 12.705 6.3525 13.0625 5.5H5.5C3.9875 5.5 2.75 6.7375 2.75 8.25V27.5C2.75 29.0125 3.9875 30.25 5.5 30.25H24.75C26.2625 30.25 27.5 29.0125 27.5 27.5V20.625L24.75 17.875ZM22.6875 24.75H7.5625L11.3438 19.8963L14.0388 23.1413L17.82 18.2738L22.6875 24.75ZM26.5375 12.2238C27.1425 11.2613 27.5 10.1475 27.5 8.9375C27.5 5.51375 24.7363 2.75 21.3125 2.75C17.8887 2.75 15.125 5.51375 15.125 8.9375C15.125 12.3613 17.8887 15.125 21.2987 15.125C22.5087 15.125 23.6362 14.7675 24.585 14.1625L28.875 18.4525L30.8275 16.5L26.5375 12.2238ZM21.3125 12.375C19.415 12.375 17.875 10.835 17.875 8.9375C17.875 7.04 19.415 5.5 21.3125 5.5C23.21 5.5 24.75 7.04 24.75 8.9375C24.75 10.835 23.21 12.375 21.3125 12.375Z" fill="#EEEEEE"/>
</svg>
