<svg width="33" height="33" viewBox="0 0 33 33" fill="none" xmlns="http://www.w3.org/2000/svg">
<path d="M17.875 4.125C11.0413 4.125 5.5 9.66625 5.5 16.5H1.375L6.72375 21.8488L6.82 22.0413L12.375 16.5H8.25C8.25 11.1788 12.5538 6.875 17.875 6.875C23.1962 6.875 27.5 11.1788 27.5 16.5C27.5 21.8212 23.1962 26.125 17.875 26.125C15.2213 26.125 12.815 25.0388 11.0825 23.2925L9.13 25.245C11.3712 27.4863 14.4512 28.875 17.875 28.875C24.7087 28.875 30.25 23.3337 30.25 16.5C30.25 9.66625 24.7087 4.125 17.875 4.125ZM16.5 11V17.875L22.385 21.3675L23.375 19.7037L18.5625 16.8438V11H16.5Z" fill="#EEEEEE"/>
</svg>
